<svg xmlns="http://www.w3.org/2000/svg" viewBox="0 0 284 111"><defs><style>.cls-1{fill:none;}.cls-2{fill:#fc0;}</style></defs><title>swg-logo</title><g id="BoundingBox"><rect class="cls-1" width="284" height="111"/></g><g id="Logo"><path d="M101.38,97.35a10.81,10.81,0,0,1,1.93.15l-.37,2a5.5,5.5,0,0,0-1.66-.27c-1.65,0-2.24.88-2.24,1.63s.72,1.32,1.48,1.83c.95.64,2,1.36,2,2.94,0,2.37-2.15,4.16-5,4.16a7.62,7.62,0,0,1-2.13-.26l.39-2.1a4.91,4.91,0,0,0,1.9.41c1.54,0,2.42-.66,2.42-1.81,0-.8-.7-1.25-1.44-1.73-.95-.62-2-1.32-2-2.91a3.77,3.77,0,0,1,1.19-2.81A5.09,5.09,0,0,1,101.38,97.35Zm5.54.63-.52,2.75h-1.51l-.34,1.68h1.52l-.82,4.33a2.89,2.89,0,0,0,.22,2.4,2.18,2.18,0,0,0,1.77.59,8.27,8.27,0,0,0,1.78-.23l.2-1.72a4.77,4.77,0,0,1-1.05.11.82.82,0,0,1-.67-.21.75.75,0,0,1-.14-.5,4,4,0,0,1,.08-.71l.76-4.06h2.1l.34-1.68h-2.12l.61-3.19Zm10.16,2.59a16.48,16.48,0,0,1,3.1.26l-.48,2.53c-.51,2.64-.84,4.38-1.13,6.18h-2.12c.15-.66.41-1.51.83-2.77l0-.07h-.14v0c-1.08,2-2.32,3-3.69,3s-2-.89-2-2.73a7.27,7.27,0,0,1,1.38-4.48A5.23,5.23,0,0,1,117.09,100.58Zm-2.73,7.3c1.29,0,2.9-2.93,3.26-4.85l.14-.62h0a4.14,4.14,0,0,0-1-.12c-2.23,0-3.06,2.65-3.06,4.32C113.63,107.44,113.87,107.88,114.36,107.88ZM131,96.56l-1.87,9.82-.14.77c-.15.81-.29,1.57-.42,2.4h-2.1a23.84,23.84,0,0,1,.81-2.77l0-.07h-.14v0c-1.06,2-2.33,3-3.68,3s-2-.89-2-2.73a7.28,7.28,0,0,1,1.38-4.48,5.23,5.23,0,0,1,4.29-2,6.37,6.37,0,0,1,.94.07h0l.77-4.1Zm-6.65,11.32c1.29,0,2.9-2.93,3.26-4.85l.14-.62h0a4.13,4.13,0,0,0-1-.12c-2.23,0-3.06,2.65-3.06,4.32C123.63,107.44,123.88,107.88,124.36,107.88ZM134.09,98l-.52,2.75h-1.51l-.34,1.68h1.53l-.82,4.33a2.91,2.91,0,0,0,.22,2.4,2.18,2.18,0,0,0,1.77.59,8.3,8.3,0,0,0,1.78-.23l.2-1.72a4.77,4.77,0,0,1-1.05.11.82.82,0,0,1-.67-.21.76.76,0,0,1-.14-.5,4.07,4.07,0,0,1,.08-.71l.76-4.06h2.1l.34-1.68h-2.12l.61-3.19ZM150,100.74l-1,2.05c-.61,1.3-1.18,2.54-1.79,3.93v0h-.1v0c0-.76-.11-1.67-.2-2.63l-.42-3.33h-2.09l-.24.49c-.89,1.84-1.81,3.75-2.58,5.47v0h-.1v0c0-.87-.09-1.77-.16-2.62l-.28-3.33h-2.25l.94,8.81H142c.88-1.79,1.87-3.81,2.78-5.82v0h.1v.05a16.39,16.39,0,0,0,.13,2l.46,3.79h2.47l4.42-8.81Zm32.32-.18c2.56,0,2.84,1.48,2.84,2.12,0,2-2.08,3.33-5.56,3.43h0l0,.21a2.66,2.66,0,0,0,0,.38c0,1,.38,1.31,1.68,1.31a7.19,7.19,0,0,0,2.53-.5c0,.13,0,1.58,0,1.65a9.6,9.6,0,0,1-3.3.56c-2.15,0-3.11-.91-3.11-3a7,7,0,0,1,1.47-4.5A4.54,4.54,0,0,1,182.3,100.56Zm-2.59,4.29h.07c2.06-.07,3.44-.8,3.44-1.81a1,1,0,0,0-1.07-1c-1.1,0-2,1-2.43,2.74Zm-22.25-4.29c2.56,0,2.83,1.48,2.83,2.12,0,2-2.08,3.33-5.56,3.43h0l0,.21a2.58,2.58,0,0,0,0,.39c0,1,.38,1.31,1.68,1.31a7.19,7.19,0,0,0,2.53-.5c0,.13,0,1.58,0,1.65a9.6,9.6,0,0,1-3.3.56c-2.15,0-3.1-.91-3.1-3a7,7,0,0,1,1.46-4.5A4.55,4.55,0,0,1,157.46,100.56Zm-2.59,4.29h.07c2.06-.07,3.44-.8,3.44-1.81a1,1,0,0,0-1.07-1c-1.1,0-2,1-2.43,2.74Zm9.56-1.45v0h-.14l0-.07a17.86,17.86,0,0,0,.76-2.62H163c-.23,1.37-.49,2.78-.76,4.21l-.88,4.6h2.14l.37-1.9c.41-2.24,1.41-4.17,2.48-4.82a1.26,1.26,0,0,1,1-.18l.46-2.1C166.3,100.35,165.36,101.54,164.43,103.4Zm6.06-6.85-2.47,13h2.14l.9-4.65,1.92,4.65h2.61l-2.37-4.8,4-4h-2.54l-3.57,3.7,1.49-7.87Zm20.37,8.6c0,2.91,1.82,4.58,5,4.58a12.42,12.42,0,0,0,4.06-.71l1.1-5.72h-2.18l-.8,4.19h0a6.54,6.54,0,0,1-1.73.24,2.69,2.69,0,0,1-3-2.87c0-2.74,1.74-5.52,5.07-5.52a7.77,7.77,0,0,1,3,.61l.65-2.12a12.08,12.08,0,0,0-3.4-.47A7.47,7.47,0,0,0,190.86,105.15Zm19.75-8.36a1.12,1.12,0,0,1,1.13,1.14,1.23,1.23,0,0,1-1.22,1.24A1.16,1.16,0,0,1,209.37,98,1.22,1.22,0,0,1,210.61,96.79Zm-3.62,0a1.12,1.12,0,0,1,1.13,1.14,1.23,1.23,0,0,1-1.22,1.24A1.15,1.15,0,0,1,205.75,98,1.23,1.23,0,0,1,207,96.79Zm1.33,3.77c2.26,0,3.45,1.11,3.45,3.2a6.26,6.26,0,0,1-1.63,4.36,5.08,5.08,0,0,1-3.7,1.62c-2.31,0-3.43-1-3.43-3.14a6.31,6.31,0,0,1,1.6-4.4A5,5,0,0,1,208.32,100.56Zm-1.58,7.3c1.55,0,2.76-1.68,2.76-3.82,0-1.1-.5-1.63-1.52-1.63-1.68,0-2.72,2-2.72,3.82C205.25,107.31,205.75,107.86,206.74,107.86Zm9.41-4.46v0H216l0-.07a17.65,17.65,0,0,0,.76-2.62h-2.07c-.22,1.31-.46,2.63-.76,4.21l-.88,4.6h2.14l.37-1.9c.41-2.24,1.41-4.17,2.49-4.82a1.26,1.26,0,0,1,1-.18l.46-2.1C218,100.35,217.09,101.54,216.15,103.4Zm6.06-6.85-2.47,13h2.14l2.48-13Zm6.05.07a1.25,1.25,0,0,1,1.29,1.24,1.45,1.45,0,0,1-1.46,1.44,1.27,1.27,0,0,1-1.3-1.26A1.44,1.44,0,0,1,228.27,96.63Zm.46,4.11L227,109.55H224.9l1.68-8.81ZM232.63,98l-.52,2.75H230.6l-.34,1.68h1.53l-.82,4.33a2.9,2.9,0,0,0,.22,2.4,2.19,2.19,0,0,0,1.77.59,8.27,8.27,0,0,0,1.78-.23l.2-1.72a4.77,4.77,0,0,1-1.05.11.82.82,0,0,1-.67-.21.75.75,0,0,1-.14-.5,4.07,4.07,0,0,1,.08-.71l.76-4.06H236l.34-1.68h-2.12l.61-3.19Zm5.57,2.75-.38,2h1.34c1,0,1.59,0,1.79,0h.12L236.72,108l-.29,1.56h6.1l.38-2h-1.34c-.64,0-1.52,0-1.9,0h-.11l4.28-5.28.31-1.56Zm18.88-3.19,1.87,12h-2.35l-.34-2.47h-4.58l-1.29,2.47h-2.27l6.35-12Zm-2.62,4.1-1.92,3.68H256l-.53-3.65c-.07-.56-.14-1.14-.16-1.68v0h-.12v0C255,100.55,254.69,101.17,254.45,101.65Zm6.46,3.5c0,2.91,1.82,4.58,5,4.58A12.42,12.42,0,0,0,270,109l.67-3.52.42-2.2-3.51,0-.34,1.76h1.35l-.47,2.4h0a6.55,6.55,0,0,1-1.74.24,2.69,2.69,0,0,1-3-2.87c0-2.74,1.74-5.52,5.07-5.52a7.75,7.75,0,0,1,3,.61l.65-2.12a12.09,12.09,0,0,0-3.4-.47A7.47,7.47,0,0,0,260.92,105.15Z"/><path d="M183.35,24.06l-4.7,4h14l2.25,28.49a102.79,102.79,0,0,1,0,12.56c1.43-4.39,2.87-8.25,4.38-11.9l-2.55-33.13ZM165.28,57.14l.21-.45-1.33-32.63h-33.7a22,22,0,0,0-14.19,5.11l-3.94,3.41A22.06,22.06,0,0,1,125.76,28h33.9L161,56.84c.1,3.88-.1,8.27-.41,12.66C162,65.31,163.44,61.23,165.28,57.14ZM242,60.62a28.18,28.18,0,0,1,6.92-18.55C241.49,46.41,237.32,55,237.32,64c0,6.64,3.47,13.1,13.07,13.1a24.37,24.37,0,0,0,6.74-.82l.69-3.08a16.61,16.61,0,0,1-3.14.36C245.08,73.53,242,67.26,242,60.62ZM105.74,72.26l-4.7,4s7.25,1.53,10.62,1.53c5.18,0,8.3-1.81,9.42-4.74a16,16,0,0,1-4.83.66A81,81,0,0,1,105.74,72.26Zm159.5-48.95c-11.74,0-20.93,3.78-27.37,10.11l-2,1.72c6.17-5,14.45-7.85,24.7-7.85,8.48,0,15.62,2.86,18.38,3.67L276.48,42.3l4.7-4,2.5-11.14C280.82,26.37,273.62,23.31,265.24,23.31ZM211.74,28h14.19L199.79,88.5l6.62-6,26.09-58.39H216.43Zm43.35,28.39H275.2l-6.33,29.41,4.7-4L280,52.45H259.79Zm-77.25,4.49L164.56,88.5l6.92-5.83,10.74-21.72a130.8,130.8,0,0,1,.42-13.39A109,109,0,0,1,177.84,60.92Zm-54-19.2a5.44,5.44,0,0,1,.19-1.44c-2.92.69-4.32,2.29-4.32,4.81,0,7.86,16.75,8.07,16.75,22.67,0,7.06-2.45,12.38-6.7,16l3.27-2.62c4.7-3.57,7.56-9.19,7.56-16.65C140.61,49.9,123.87,49.59,123.87,41.73Z"/><path d="M80.62,52.53l-1-14.88,11.34,8-1.25,5.83ZM29.42,29.66V16.86L26.4.94,23.17,17V37.26h2.08Zm-18.11,19V47.35a1.91,1.91,0,0,1,2.08-2.08,1.88,1.88,0,0,1,2,2.08V48.7H18.7V47.35a2,2,0,0,1,2.08-2.08,1.89,1.89,0,0,1,2,2.08V48.7h3.33V47.35a1.94,1.94,0,0,1,2-2.08,1.91,1.91,0,0,1,2.08,2.08V48.7H35L33,40h-28l2,8.74ZM28.58,37.26h7l1.46,6,24.25-8.64H78.12L64.9,19.77l-5.1.83-1.66-7.18-1.46,7.7L32.75,29.45Zm9.26-19.56L35.35,2.6l-2.71,15v9l5.21-1.87ZM2.3,39.86l-2,8.84V60.57l4.06-.42V48.7ZM9.9,101.12,80.25,93l.62-2.5L9.38,98.72ZM38,110.06l39.54-4.37.52-2.6-40.38,4.58Zm35.8-25-41,4.68.42,2.39,40.27-4.48ZM21.34,106l57.55-6.66.52-2.5-58.7,6.77Zm71.8-25.38s-14.82-4.74-17.21-5.36l2.6-13.74,8.64-1,1-4.47L1.73,65.9l1,4.16,9.68-1L14,76.82a58.61,58.61,0,0,0-8.64,4.27l1,4.06C11.31,82.76,24,75,45.13,75c21,0,47.15,10.2,47.15,10.2ZM16.82,75.79l-1.46-7.08,16.55-1.87.41,5.1A76.3,76.3,0,0,0,16.82,75.79Zm36.53-4.58a93.42,93.42,0,0,0-18.11.31l-.31-5,18.84-2.19ZM73,74.54a107.4,107.4,0,0,0-16.65-3.12L56.79,64l18.52-2.08Z"/><path class="cls-2" d="M177.84,60.92,164.56,88.5H148.83l-2.45-48.61H128c-5.62,0-8.27,1.74-8.27,5.21,0,7.86,16.75,8.07,16.75,22.67s-10.62,21.85-25.94,21.85a46.77,46.77,0,0,1-11.84-2L101,76.24s7.25,1.53,10.62,1.53c6.64,0,9.91-3,9.91-7.46,0-7.86-16.64-8.27-16.64-22.06,0-13.17,10.72-20.22,20.83-20.22h33.9L161,56.84c.1,3.88-.1,8.27-.41,12.66,1.43-4.19,2.86-8.27,4.7-12.36L178.65,28h14l2.25,28.49a102.79,102.79,0,0,1,0,12.56c1.53-4.7,3.06-8.78,4.7-12.66L211.74,28h14.19L199.79,88.5H183.14l-.92-27.16a130.65,130.65,0,0,1,.41-13.79A109,109,0,0,1,177.84,60.92Zm82.51-21.79a46.28,46.28,0,0,1,16.13,3.17L278.93,31c-2.76-.82-9.91-3.67-18.38-3.67-24.51,0-38,16.44-38,38.5,0,13.79,7.76,23.93,25.53,23.93a57.12,57.12,0,0,0,20.83-3.88l6.33-29.41H255.09l-2,9.8h6.33l-2.25,10a24.37,24.37,0,0,1-6.74.82c-9.6,0-13.07-6.47-13.07-13.1C237.32,51.19,245.54,39.14,260.34,39.14Z"/></g></svg>